<mxfile host="app.diagrams.net" modified="2021-01-14T12:23:18.016Z" agent="5.0 (Windows NT 10.0; Win64; x64) AppleWebKit/537.36 (KHTML, like Gecko) Chrome/87.0.4280.141 Safari/537.36" etag="M0o6sD1jtNJNePBJKJZR" version="14.2.2" type="github">
  <diagram id="9nuSGyLWVy-_RpMzC_ME" name="Page-1">
    <mxGraphModel dx="868" dy="482" grid="1" gridSize="10" guides="1" tooltips="1" connect="1" arrows="1" fold="1" page="1" pageScale="1" pageWidth="827" pageHeight="1169" math="0" shadow="0">
      <root>
        <mxCell id="0" />
        <mxCell id="1" parent="0" />
        <mxCell id="9ZyquPPQnGf5M0UI1L6W-2" value="Name" style="ellipse;whiteSpace=wrap;html=1;" vertex="1" parent="1">
          <mxGeometry x="354" y="3" width="86" height="40" as="geometry" />
        </mxCell>
        <mxCell id="9ZyquPPQnGf5M0UI1L6W-3" value="Email" style="ellipse;whiteSpace=wrap;html=1;" vertex="1" parent="1">
          <mxGeometry x="460" y="3" width="110" height="40" as="geometry" />
        </mxCell>
        <mxCell id="9ZyquPPQnGf5M0UI1L6W-4" value="Address" style="ellipse;whiteSpace=wrap;html=1;" vertex="1" parent="1">
          <mxGeometry x="230" y="3" width="100" height="40" as="geometry" />
        </mxCell>
        <mxCell id="9ZyquPPQnGf5M0UI1L6W-5" value="" style="ellipse;whiteSpace=wrap;html=1;" vertex="1" parent="1">
          <mxGeometry x="600" y="3" width="120" height="50" as="geometry" />
        </mxCell>
        <mxCell id="9ZyquPPQnGf5M0UI1L6W-6" value="Phone number" style="ellipse;whiteSpace=wrap;html=1;" vertex="1" parent="1">
          <mxGeometry x="610" y="8" width="100" height="40" as="geometry" />
        </mxCell>
        <mxCell id="9ZyquPPQnGf5M0UI1L6W-7" value="" style="endArrow=none;html=1;entryX=0;entryY=1;entryDx=0;entryDy=0;exitX=1;exitY=0.5;exitDx=0;exitDy=0;" edge="1" parent="1" source="9ZyquPPQnGf5M0UI1L6W-1" target="9ZyquPPQnGf5M0UI1L6W-5">
          <mxGeometry width="50" height="50" relative="1" as="geometry">
            <mxPoint x="390" y="153" as="sourcePoint" />
            <mxPoint x="440" y="103" as="targetPoint" />
          </mxGeometry>
        </mxCell>
        <mxCell id="9ZyquPPQnGf5M0UI1L6W-9" value="" style="endArrow=none;html=1;exitX=0.125;exitY=-0.05;exitDx=0;exitDy=0;exitPerimeter=0;entryX=0.73;entryY=0.925;entryDx=0;entryDy=0;entryPerimeter=0;" edge="1" parent="1" source="9ZyquPPQnGf5M0UI1L6W-1">
          <mxGeometry width="50" height="50" relative="1" as="geometry">
            <mxPoint x="228" y="103" as="sourcePoint" />
            <mxPoint x="251" y="40" as="targetPoint" />
          </mxGeometry>
        </mxCell>
        <mxCell id="9ZyquPPQnGf5M0UI1L6W-1" value="Student" style="rounded=0;whiteSpace=wrap;html=1;" vertex="1" parent="1">
          <mxGeometry x="302" y="113" width="120" height="60" as="geometry" />
        </mxCell>
        <mxCell id="9ZyquPPQnGf5M0UI1L6W-13" value="" style="endArrow=none;html=1;entryX=0.291;entryY=1.05;entryDx=0;entryDy=0;entryPerimeter=0;exitX=0.675;exitY=0.017;exitDx=0;exitDy=0;exitPerimeter=0;" edge="1" parent="1" source="9ZyquPPQnGf5M0UI1L6W-1" target="9ZyquPPQnGf5M0UI1L6W-3">
          <mxGeometry width="50" height="50" relative="1" as="geometry">
            <mxPoint x="390" y="153" as="sourcePoint" />
            <mxPoint x="440" y="103" as="targetPoint" />
          </mxGeometry>
        </mxCell>
        <mxCell id="9ZyquPPQnGf5M0UI1L6W-14" value="" style="endArrow=none;html=1;entryX=0;entryY=1;entryDx=0;entryDy=0;" edge="1" parent="1" target="9ZyquPPQnGf5M0UI1L6W-2">
          <mxGeometry width="50" height="50" relative="1" as="geometry">
            <mxPoint x="338" y="113" as="sourcePoint" />
            <mxPoint x="345" y="43" as="targetPoint" />
          </mxGeometry>
        </mxCell>
        <mxCell id="9ZyquPPQnGf5M0UI1L6W-15" value="Track" style="rounded=0;whiteSpace=wrap;html=1;" vertex="1" parent="1">
          <mxGeometry x="308" y="307" width="120" height="60" as="geometry" />
        </mxCell>
        <mxCell id="9ZyquPPQnGf5M0UI1L6W-17" value="Name" style="ellipse;whiteSpace=wrap;html=1;" vertex="1" parent="1">
          <mxGeometry x="308" y="397" width="120" height="50" as="geometry" />
        </mxCell>
        <mxCell id="9ZyquPPQnGf5M0UI1L6W-18" value="" style="endArrow=none;html=1;exitX=0.5;exitY=0;exitDx=0;exitDy=0;entryX=0.5;entryY=1;entryDx=0;entryDy=0;" edge="1" parent="1" source="9ZyquPPQnGf5M0UI1L6W-17" target="9ZyquPPQnGf5M0UI1L6W-15">
          <mxGeometry width="50" height="50" relative="1" as="geometry">
            <mxPoint x="338" y="305" as="sourcePoint" />
            <mxPoint x="388" y="255" as="targetPoint" />
          </mxGeometry>
        </mxCell>
        <mxCell id="9ZyquPPQnGf5M0UI1L6W-19" value="belong&amp;nbsp;" style="rhombus;whiteSpace=wrap;html=1;" vertex="1" parent="1">
          <mxGeometry x="322" y="193" width="80" height="80" as="geometry" />
        </mxCell>
        <mxCell id="9ZyquPPQnGf5M0UI1L6W-20" value="" style="endArrow=none;html=1;entryX=0.5;entryY=0;entryDx=0;entryDy=0;exitX=0.5;exitY=1;exitDx=0;exitDy=0;" edge="1" parent="1" source="9ZyquPPQnGf5M0UI1L6W-1" target="9ZyquPPQnGf5M0UI1L6W-19">
          <mxGeometry width="50" height="50" relative="1" as="geometry">
            <mxPoint x="338" y="280" as="sourcePoint" />
            <mxPoint x="388" y="230" as="targetPoint" />
          </mxGeometry>
        </mxCell>
        <mxCell id="9ZyquPPQnGf5M0UI1L6W-21" value="" style="endArrow=none;html=1;entryX=0.5;entryY=1;entryDx=0;entryDy=0;exitX=0.45;exitY=0.017;exitDx=0;exitDy=0;exitPerimeter=0;" edge="1" parent="1" source="9ZyquPPQnGf5M0UI1L6W-15" target="9ZyquPPQnGf5M0UI1L6W-19">
          <mxGeometry width="50" height="50" relative="1" as="geometry">
            <mxPoint x="368" y="300" as="sourcePoint" />
            <mxPoint x="388" y="230" as="targetPoint" />
          </mxGeometry>
        </mxCell>
        <mxCell id="9ZyquPPQnGf5M0UI1L6W-22" value="M" style="text;html=1;align=center;verticalAlign=middle;resizable=0;points=[];autosize=1;" vertex="1" parent="1">
          <mxGeometry x="373" y="281" width="30" height="20" as="geometry" />
        </mxCell>
        <mxCell id="9ZyquPPQnGf5M0UI1L6W-23" value="M" style="text;html=1;align=center;verticalAlign=middle;resizable=0;points=[];autosize=1;" vertex="1" parent="1">
          <mxGeometry x="375" y="178" width="30" height="20" as="geometry" />
        </mxCell>
        <mxCell id="9ZyquPPQnGf5M0UI1L6W-24" value="" style="endArrow=none;html=1;entryX=0.5;entryY=0;entryDx=0;entryDy=0;exitX=0.5;exitY=1;exitDx=0;exitDy=0;" edge="1" parent="1" source="9ZyquPPQnGf5M0UI1L6W-1" target="9ZyquPPQnGf5M0UI1L6W-19">
          <mxGeometry width="50" height="50" relative="1" as="geometry">
            <mxPoint x="338" y="280" as="sourcePoint" />
            <mxPoint x="388" y="230" as="targetPoint" />
          </mxGeometry>
        </mxCell>
        <mxCell id="9ZyquPPQnGf5M0UI1L6W-26" value="ID" style="ellipse;whiteSpace=wrap;html=1;" vertex="1" parent="1">
          <mxGeometry x="110" width="100" height="50" as="geometry" />
        </mxCell>
        <mxCell id="9ZyquPPQnGf5M0UI1L6W-27" value="" style="endArrow=none;html=1;exitX=0.77;exitY=0.94;exitDx=0;exitDy=0;exitPerimeter=0;entryX=0;entryY=0.65;entryDx=0;entryDy=0;entryPerimeter=0;" edge="1" parent="1" target="9ZyquPPQnGf5M0UI1L6W-1">
          <mxGeometry width="50" height="50" relative="1" as="geometry">
            <mxPoint x="135" y="47" as="sourcePoint" />
            <mxPoint x="388" y="230" as="targetPoint" />
          </mxGeometry>
        </mxCell>
        <mxCell id="9ZyquPPQnGf5M0UI1L6W-34" value="" style="line;strokeWidth=2;html=1;" vertex="1" parent="1">
          <mxGeometry x="139" y="33" width="40" height="10" as="geometry" />
        </mxCell>
        <mxCell id="9ZyquPPQnGf5M0UI1L6W-35" value="" style="line;strokeWidth=2;html=1;" vertex="1" parent="1">
          <mxGeometry x="338" y="430" width="60" height="10" as="geometry" />
        </mxCell>
        <mxCell id="9ZyquPPQnGf5M0UI1L6W-39" value="Name" style="ellipse;whiteSpace=wrap;html=1;" vertex="1" parent="1">
          <mxGeometry x="525.5" y="314" width="95" height="36" as="geometry" />
        </mxCell>
        <mxCell id="9ZyquPPQnGf5M0UI1L6W-40" value="" style="endArrow=none;html=1;entryX=0.574;entryY=0.038;entryDx=0;entryDy=0;entryPerimeter=0;exitX=0.617;exitY=0.983;exitDx=0;exitDy=0;exitPerimeter=0;" edge="1" parent="1">
          <mxGeometry width="50" height="50" relative="1" as="geometry">
            <mxPoint x="580.02" y="257.98" as="sourcePoint" />
            <mxPoint x="580.03" y="311.36800000000005" as="targetPoint" />
          </mxGeometry>
        </mxCell>
        <mxCell id="9ZyquPPQnGf5M0UI1L6W-41" value="" style="line;strokeWidth=2;html=1;" vertex="1" parent="1">
          <mxGeometry x="548" y="336" width="50" height="10" as="geometry" />
        </mxCell>
        <mxCell id="9ZyquPPQnGf5M0UI1L6W-43" value="Description" style="ellipse;whiteSpace=wrap;html=1;" vertex="1" parent="1">
          <mxGeometry x="640" y="314.5" width="80" height="36.5" as="geometry" />
        </mxCell>
        <mxCell id="9ZyquPPQnGf5M0UI1L6W-44" value="" style="endArrow=none;html=1;exitX=0.388;exitY=0.014;exitDx=0;exitDy=0;exitPerimeter=0;entryX=1;entryY=0.75;entryDx=0;entryDy=0;" edge="1" parent="1" source="9ZyquPPQnGf5M0UI1L6W-43">
          <mxGeometry width="50" height="50" relative="1" as="geometry">
            <mxPoint x="390" y="290" as="sourcePoint" />
            <mxPoint x="603" y="248" as="targetPoint" />
          </mxGeometry>
        </mxCell>
        <mxCell id="9ZyquPPQnGf5M0UI1L6W-45" value="Max score" style="ellipse;whiteSpace=wrap;html=1;" vertex="1" parent="1">
          <mxGeometry x="660" y="208" width="100" height="50" as="geometry" />
        </mxCell>
        <mxCell id="9ZyquPPQnGf5M0UI1L6W-46" value="" style="endArrow=none;html=1;entryX=0;entryY=0.5;entryDx=0;entryDy=0;exitX=1;exitY=0.5;exitDx=0;exitDy=0;" edge="1" parent="1" target="9ZyquPPQnGf5M0UI1L6W-45">
          <mxGeometry width="50" height="50" relative="1" as="geometry">
            <mxPoint x="603" y="233" as="sourcePoint" />
            <mxPoint x="440" y="240" as="targetPoint" />
          </mxGeometry>
        </mxCell>
        <mxCell id="9ZyquPPQnGf5M0UI1L6W-49" value="Subject" style="rounded=0;whiteSpace=wrap;html=1;" vertex="1" parent="1">
          <mxGeometry x="513" y="212" width="120" height="42" as="geometry" />
        </mxCell>
        <mxCell id="9ZyquPPQnGf5M0UI1L6W-51" value="Exam" style="rounded=0;whiteSpace=wrap;html=1;" vertex="1" parent="1">
          <mxGeometry x="653" y="120" width="120" height="50" as="geometry" />
        </mxCell>
        <mxCell id="9ZyquPPQnGf5M0UI1L6W-52" value="Has" style="rhombus;whiteSpace=wrap;html=1;" vertex="1" parent="1">
          <mxGeometry x="525.5" y="105" width="80" height="80" as="geometry" />
        </mxCell>
        <mxCell id="9ZyquPPQnGf5M0UI1L6W-53" value="" style="endArrow=none;html=1;entryX=0;entryY=0.5;entryDx=0;entryDy=0;" edge="1" parent="1" source="9ZyquPPQnGf5M0UI1L6W-1" target="9ZyquPPQnGf5M0UI1L6W-52">
          <mxGeometry width="50" height="50" relative="1" as="geometry">
            <mxPoint x="390" y="280" as="sourcePoint" />
            <mxPoint x="440" y="230" as="targetPoint" />
          </mxGeometry>
        </mxCell>
        <mxCell id="9ZyquPPQnGf5M0UI1L6W-54" value="" style="endArrow=none;html=1;entryX=0;entryY=0.5;entryDx=0;entryDy=0;exitX=1;exitY=0.5;exitDx=0;exitDy=0;" edge="1" parent="1" source="9ZyquPPQnGf5M0UI1L6W-52" target="9ZyquPPQnGf5M0UI1L6W-51">
          <mxGeometry width="50" height="50" relative="1" as="geometry">
            <mxPoint x="390" y="280" as="sourcePoint" />
            <mxPoint x="440" y="230" as="targetPoint" />
          </mxGeometry>
        </mxCell>
        <mxCell id="9ZyquPPQnGf5M0UI1L6W-55" value="" style="endArrow=none;html=1;exitX=0.438;exitY=0.19;exitDx=0;exitDy=0;exitPerimeter=0;entryX=0.506;entryY=0.938;entryDx=0;entryDy=0;entryPerimeter=0;" edge="1" parent="1" target="9ZyquPPQnGf5M0UI1L6W-52">
          <mxGeometry width="50" height="50" relative="1" as="geometry">
            <mxPoint x="565.56" y="213.98000000000002" as="sourcePoint" />
            <mxPoint x="566" y="190" as="targetPoint" />
          </mxGeometry>
        </mxCell>
        <mxCell id="9ZyquPPQnGf5M0UI1L6W-56" value="Date" style="ellipse;whiteSpace=wrap;html=1;" vertex="1" parent="1">
          <mxGeometry x="727" y="43" width="83" height="37" as="geometry" />
        </mxCell>
        <mxCell id="9ZyquPPQnGf5M0UI1L6W-57" value="" style="endArrow=none;html=1;entryX=0.5;entryY=1;entryDx=0;entryDy=0;exitX=0.75;exitY=0;exitDx=0;exitDy=0;" edge="1" parent="1" source="9ZyquPPQnGf5M0UI1L6W-51" target="9ZyquPPQnGf5M0UI1L6W-56">
          <mxGeometry width="50" height="50" relative="1" as="geometry">
            <mxPoint x="390" y="280" as="sourcePoint" />
            <mxPoint x="440" y="230" as="targetPoint" />
          </mxGeometry>
        </mxCell>
        <mxCell id="9ZyquPPQnGf5M0UI1L6W-58" value="Score" style="ellipse;whiteSpace=wrap;html=1;" vertex="1" parent="1">
          <mxGeometry x="757" y="185" width="70" height="40" as="geometry" />
        </mxCell>
        <mxCell id="9ZyquPPQnGf5M0UI1L6W-59" value="" style="endArrow=none;html=1;entryX=0.5;entryY=0;entryDx=0;entryDy=0;exitX=1;exitY=0.75;exitDx=0;exitDy=0;" edge="1" parent="1" source="9ZyquPPQnGf5M0UI1L6W-51" target="9ZyquPPQnGf5M0UI1L6W-58">
          <mxGeometry width="50" height="50" relative="1" as="geometry">
            <mxPoint x="390" y="280" as="sourcePoint" />
            <mxPoint x="440" y="230" as="targetPoint" />
          </mxGeometry>
        </mxCell>
        <mxCell id="9ZyquPPQnGf5M0UI1L6W-61" value="ID" style="ellipse;whiteSpace=wrap;html=1;" vertex="1" parent="1">
          <mxGeometry x="810" y="128" width="70" height="30" as="geometry" />
        </mxCell>
        <mxCell id="9ZyquPPQnGf5M0UI1L6W-67" value="" style="line;strokeWidth=2;html=1;" vertex="1" parent="1">
          <mxGeometry x="830" y="148" width="30" height="10" as="geometry" />
        </mxCell>
        <mxCell id="9ZyquPPQnGf5M0UI1L6W-69" value="" style="endArrow=none;html=1;entryX=0;entryY=0.5;entryDx=0;entryDy=0;" edge="1" parent="1" source="9ZyquPPQnGf5M0UI1L6W-51" target="9ZyquPPQnGf5M0UI1L6W-61">
          <mxGeometry width="50" height="50" relative="1" as="geometry">
            <mxPoint x="420" y="280" as="sourcePoint" />
            <mxPoint x="470" y="230" as="targetPoint" />
          </mxGeometry>
        </mxCell>
        <mxCell id="9ZyquPPQnGf5M0UI1L6W-70" value="1" style="text;html=1;align=center;verticalAlign=middle;resizable=0;points=[];autosize=1;" vertex="1" parent="1">
          <mxGeometry x="630" y="120" width="20" height="20" as="geometry" />
        </mxCell>
        <mxCell id="9ZyquPPQnGf5M0UI1L6W-71" value="1" style="text;html=1;align=center;verticalAlign=middle;resizable=0;points=[];autosize=1;" vertex="1" parent="1">
          <mxGeometry x="500" y="120" width="20" height="20" as="geometry" />
        </mxCell>
        <mxCell id="9ZyquPPQnGf5M0UI1L6W-72" value="1" style="text;html=1;align=center;verticalAlign=middle;resizable=0;points=[];autosize=1;" vertex="1" parent="1">
          <mxGeometry x="630" y="150" width="20" height="20" as="geometry" />
        </mxCell>
        <mxCell id="9ZyquPPQnGf5M0UI1L6W-73" value="1" style="text;html=1;align=center;verticalAlign=middle;resizable=0;points=[];autosize=1;" vertex="1" parent="1">
          <mxGeometry x="578" y="188" width="20" height="20" as="geometry" />
        </mxCell>
        <mxCell id="9ZyquPPQnGf5M0UI1L6W-74" value="M" style="text;html=1;align=center;verticalAlign=middle;resizable=0;points=[];autosize=1;" vertex="1" parent="1">
          <mxGeometry x="525.5" y="188" width="30" height="20" as="geometry" />
        </mxCell>
        <mxCell id="9ZyquPPQnGf5M0UI1L6W-75" value="M" style="text;html=1;align=center;verticalAlign=middle;resizable=0;points=[];autosize=1;" vertex="1" parent="1">
          <mxGeometry x="495" y="153" width="30" height="20" as="geometry" />
        </mxCell>
        <mxCell id="9ZyquPPQnGf5M0UI1L6W-77" value="M" style="text;html=1;align=center;verticalAlign=middle;resizable=0;points=[];autosize=1;" vertex="1" parent="1">
          <mxGeometry x="313" y="178" width="30" height="20" as="geometry" />
        </mxCell>
        <mxCell id="9ZyquPPQnGf5M0UI1L6W-78" value="1" style="text;html=1;align=center;verticalAlign=middle;resizable=0;points=[];autosize=1;" vertex="1" parent="1">
          <mxGeometry x="327" y="281" width="20" height="20" as="geometry" />
        </mxCell>
        <mxCell id="9ZyquPPQnGf5M0UI1L6W-80" value="" style="endArrow=none;html=1;exitX=0.375;exitY=0.113;exitDx=0;exitDy=0;exitPerimeter=0;entryX=0.425;entryY=0.983;entryDx=0;entryDy=0;entryPerimeter=0;" edge="1" parent="1" source="9ZyquPPQnGf5M0UI1L6W-19" target="9ZyquPPQnGf5M0UI1L6W-1">
          <mxGeometry width="50" height="50" relative="1" as="geometry">
            <mxPoint x="368" y="260" as="sourcePoint" />
            <mxPoint x="418" y="210" as="targetPoint" />
          </mxGeometry>
        </mxCell>
        <mxCell id="9ZyquPPQnGf5M0UI1L6W-81" value="" style="endArrow=none;html=1;exitX=0.5;exitY=0;exitDx=0;exitDy=0;" edge="1" parent="1" source="9ZyquPPQnGf5M0UI1L6W-15">
          <mxGeometry width="50" height="50" relative="1" as="geometry">
            <mxPoint x="368" y="260" as="sourcePoint" />
            <mxPoint x="368" y="270" as="targetPoint" />
          </mxGeometry>
        </mxCell>
        <mxCell id="9ZyquPPQnGf5M0UI1L6W-84" value="" style="endArrow=none;html=1;" edge="1" parent="1">
          <mxGeometry width="50" height="50" relative="1" as="geometry">
            <mxPoint x="599" y="151" as="sourcePoint" />
            <mxPoint x="650" y="151" as="targetPoint" />
          </mxGeometry>
        </mxCell>
        <mxCell id="9ZyquPPQnGf5M0UI1L6W-86" value="Has" style="rhombus;whiteSpace=wrap;html=1;" vertex="1" parent="1">
          <mxGeometry x="416" y="220" width="50" height="49" as="geometry" />
        </mxCell>
        <mxCell id="9ZyquPPQnGf5M0UI1L6W-87" value="" style="endArrow=none;html=1;entryX=0;entryY=0.5;entryDx=0;entryDy=0;exitX=0.817;exitY=-0.017;exitDx=0;exitDy=0;exitPerimeter=0;" edge="1" parent="1" source="9ZyquPPQnGf5M0UI1L6W-15" target="9ZyquPPQnGf5M0UI1L6W-86">
          <mxGeometry width="50" height="50" relative="1" as="geometry">
            <mxPoint x="410" y="300" as="sourcePoint" />
            <mxPoint x="470" y="210" as="targetPoint" />
          </mxGeometry>
        </mxCell>
        <mxCell id="9ZyquPPQnGf5M0UI1L6W-88" value="" style="endArrow=none;html=1;entryX=0;entryY=0.25;entryDx=0;entryDy=0;exitX=1;exitY=0.5;exitDx=0;exitDy=0;" edge="1" parent="1" source="9ZyquPPQnGf5M0UI1L6W-86" target="9ZyquPPQnGf5M0UI1L6W-49">
          <mxGeometry width="50" height="50" relative="1" as="geometry">
            <mxPoint x="420" y="260" as="sourcePoint" />
            <mxPoint x="470" y="210" as="targetPoint" />
          </mxGeometry>
        </mxCell>
        <mxCell id="9ZyquPPQnGf5M0UI1L6W-90" value="M" style="text;html=1;align=center;verticalAlign=middle;resizable=0;points=[];autosize=1;" vertex="1" parent="1">
          <mxGeometry x="424" y="283" width="30" height="20" as="geometry" />
        </mxCell>
        <mxCell id="9ZyquPPQnGf5M0UI1L6W-91" value="M" style="text;html=1;align=center;verticalAlign=middle;resizable=0;points=[];autosize=1;" vertex="1" parent="1">
          <mxGeometry x="475" y="200" width="30" height="20" as="geometry" />
        </mxCell>
        <mxCell id="9ZyquPPQnGf5M0UI1L6W-92" value="" style="endArrow=none;html=1;exitX=0.85;exitY=0.05;exitDx=0;exitDy=0;exitPerimeter=0;entryX=0.14;entryY=0.612;entryDx=0;entryDy=0;entryPerimeter=0;" edge="1" parent="1" source="9ZyquPPQnGf5M0UI1L6W-15" target="9ZyquPPQnGf5M0UI1L6W-86">
          <mxGeometry width="50" height="50" relative="1" as="geometry">
            <mxPoint x="420" y="260" as="sourcePoint" />
            <mxPoint x="440" y="250" as="targetPoint" />
          </mxGeometry>
        </mxCell>
        <mxCell id="9ZyquPPQnGf5M0UI1L6W-95" value="" style="endArrow=none;html=1;exitX=1;exitY=1;exitDx=0;exitDy=0;" edge="1" parent="1" source="9ZyquPPQnGf5M0UI1L6W-86">
          <mxGeometry width="50" height="50" relative="1" as="geometry">
            <mxPoint x="420" y="260" as="sourcePoint" />
            <mxPoint x="513" y="230" as="targetPoint" />
          </mxGeometry>
        </mxCell>
      </root>
    </mxGraphModel>
  </diagram>
</mxfile>
